HIERARCHY
ROOT Hips
{
  OFFSET -66.6987 92.9402 47.807
  CHANNELS 6 Xposition Yposition Zposition Zrotation Xrotation Yrotation
  JOINT Spine
  {
    OFFSET 0 8 0
    CHANNELS 6 Xposition Yposition Zposition Zrotation Xrotation Yrotation
    JOINT Spine1
    {
      OFFSET 0 8 0
      CHANNELS 6 Xposition Yposition Zposition Zrotation Xrotation Yrotation
      JOINT Spine2
      {
        OFFSET 0 8 0
        CHANNELS 6 Xposition Yposition Zposition Zrotation Xrotation Yrotation
        JOINT Spine3
        {
          OFFSET 0 8 0
          CHANNELS 6 Xposition Yposition Zposition Zrotation Xrotation Yrotation
          JOINT Neck
          {
            OFFSET 0.00018207 17.0001 0.000201914
            CHANNELS 6 Xposition Yposition Zposition Zrotation Xrotation Yrotation
            JOINT Head
            {
              OFFSET 0 10.8 0
              CHANNELS 6 Xposition Yposition Zposition Zrotation Xrotation Yrotation
              End Site
              {
                OFFSET 0 20.25 0
              }
            }
          }
          JOINT LeftShoulder
          {
            OFFSET 5.00019 16.9999 0.000455442
            CHANNELS 6 Xposition Yposition Zposition Zrotation Xrotation Yrotation
            JOINT LeftShoulder2
            {
              OFFSET 6.45 0 0
              CHANNELS 6 Xposition Yposition Zposition Zrotation Xrotation Yrotation
              JOINT LeftArm
              {
                OFFSET 6.44998 0.00069384 0.000261268
                CHANNELS 6 Xposition Yposition Zposition Zrotation Xrotation Yrotation
                JOINT LeftForeArm
                {
                  OFFSET -1.19202e-05 -32.4 -2.00001
                  CHANNELS 6 Xposition Yposition Zposition Zrotation Xrotation Yrotation
                  JOINT LeftHand
                  {
                    OFFSET -1.30179e-05 -25.65 2
                    CHANNELS 6 Xposition Yposition Zposition Zrotation Xrotation Yrotation
                    JOINT LeftHandThumb1
                    {
                      OFFSET -0.499999 -1.5 2.65
                      CHANNELS 6 Xposition Yposition Zposition Zrotation Xrotation Yrotation
                      JOINT LeftHandThumb2
                      {
                        OFFSET 0 -3.8 3.70001
                        CHANNELS 6 Xposition Yposition Zposition Zrotation Xrotation Yrotation
                        JOINT LeftHandThumb3
                        {
                          OFFSET 0 -3 2.7
                          CHANNELS 6 Xposition Yposition Zposition Zrotation Xrotation Yrotation
                          End Site
                          {
                            OFFSET 0 -2.29999 1.8
                          }
                        }
                      }
                    }
                    JOINT LeftHandIndex
                    {
                      OFFSET 0 -1.9 1.6
                      CHANNELS 6 Xposition Yposition Zposition Zrotation Xrotation Yrotation
                      JOINT LeftHandIndex1
                      {
                        OFFSET 1.57189e-05 -8.3 1.9
                        CHANNELS 6 Xposition Yposition Zposition Zrotation Xrotation Yrotation
                        JOINT LeftHandIndex2
                        {
                          OFFSET -1.37333e-05 -4.5 0
                          CHANNELS 6 Xposition Yposition Zposition Zrotation Xrotation Yrotation
                          JOINT LeftHandIndex3
                          {
                            OFFSET 0 -3.4 0
                            CHANNELS 6 Xposition Yposition Zposition Zrotation Xrotation Yrotation
                            End Site
                            {
                              OFFSET 0 -2.6 0
                            }
                          }
                        }
                      }
                    }
                    JOINT LeftHandMiddle
                    {
                      OFFSET -0.249999 -2.2 0.400002
                      CHANNELS 6 Xposition Yposition Zposition Zrotation Xrotation Yrotation
                      JOINT LeftHandMiddle1
                      {
                        OFFSET 0 -8.29999 1
                        CHANNELS 6 Xposition Yposition Zposition Zrotation Xrotation Yrotation
                        JOINT LeftHandMiddle2
                        {
                          OFFSET 0 -4.65001 0
                          CHANNELS 6 Xposition Yposition Zposition Zrotation Xrotation Yrotation
                          JOINT LeftHandMiddle3
                          {
                            OFFSET 0 -3.3 0
                            CHANNELS 6 Xposition Yposition Zposition Zrotation Xrotation Yrotation
                            End Site
                            {
                              OFFSET 0 -2.7 0
                            }
                          }
                        }
                      }
                    }
                    JOINT LeftHandRing
                    {
                      OFFSET -0.499998 -2.15 -0.8
                      CHANNELS 6 Xposition Yposition Zposition Zrotation Xrotation Yrotation
                      JOINT LeftHandRing1
                      {
                        OFFSET 0 -7.75 -0.200004
                        CHANNELS 6 Xposition Yposition Zposition Zrotation Xrotation Yrotation
                        JOINT LeftHandRing2
                        {
                          OFFSET 0 -3.79999 0
                          CHANNELS 6 Xposition Yposition Zposition Zrotation Xrotation Yrotation
                          JOINT LeftHandRing3
                          {
                            OFFSET 1.00609e-05 -3.40001 0
                            CHANNELS 6 Xposition Yposition Zposition Zrotation Xrotation Yrotation
                            End Site
                            {
                              OFFSET 0 -2.6 0
                            }
                          }
                        }
                      }
                    }
                    JOINT LeftHandPinky
                    {
                      OFFSET -0.749996 -1.75 -1.85
                      CHANNELS 6 Xposition Yposition Zposition Zrotation Xrotation Yrotation
                      JOINT LeftHandPinky1
                      {
                        OFFSET 0 -7.15 -1
                        CHANNELS 6 Xposition Yposition Zposition Zrotation Xrotation Yrotation
                        JOINT LeftHandPinky2
                        {
                          OFFSET 1.3207e-05 -3 0
                          CHANNELS 6 Xposition Yposition Zposition Zrotation Xrotation Yrotation
                          JOINT LeftHandPinky3
                          {
                            OFFSET -1.05668e-05 -2.35 0
                            CHANNELS 6 Xposition Yposition Zposition Zrotation Xrotation Yrotation
                            End Site
                            {
                              OFFSET 1.63802e-05 -2.1 0
                            }
                          }
                        }
                      }
                    }
                  }
                }
              }
            }
          }
          JOINT RightShoulder
          {
            OFFSET -4.99981 17.0001 -3.24782e-05
            CHANNELS 6 Xposition Yposition Zposition Zrotation Xrotation Yrotation
            JOINT RightShoulder2
            {
              OFFSET -6.45 0 0
              CHANNELS 6 Xposition Yposition Zposition Zrotation Xrotation Yrotation
              JOINT RightArm
              {
                OFFSET -6.45 -1.94688e-05 -0.000372257
                CHANNELS 6 Xposition Yposition Zposition Zrotation Xrotation Yrotation
                JOINT RightForeArm
                {
                  OFFSET 0 -32.4 -1.99999
                  CHANNELS 6 Xposition Yposition Zposition Zrotation Xrotation Yrotation
                  JOINT RightHand
                  {
                    OFFSET 0 -25.65 2
                    CHANNELS 6 Xposition Yposition Zposition Zrotation Xrotation Yrotation
                    JOINT RightHandThumb1
                    {
                      OFFSET 0.500007 -1.5 2.65
                      CHANNELS 6 Xposition Yposition Zposition Zrotation Xrotation Yrotation
                      JOINT RightHandThumb2
                      {
                        OFFSET 0 -3.8 3.7
                        CHANNELS 6 Xposition Yposition Zposition Zrotation Xrotation Yrotation
                        JOINT RightHandThumb3
                        {
                          OFFSET 0 -3 2.7
                          CHANNELS 6 Xposition Yposition Zposition Zrotation Xrotation Yrotation
                          End Site
                          {
                            OFFSET 0 -2.3 1.8
                          }
                        }
                      }
                    }
                    JOINT RightHandIndex
                    {
                      OFFSET 0 -1.9 1.6
                      CHANNELS 6 Xposition Yposition Zposition Zrotation Xrotation Yrotation
                      JOINT RightHandIndex1
                      {
                        OFFSET 0 -8.3 1.9
                        CHANNELS 6 Xposition Yposition Zposition Zrotation Xrotation Yrotation
                        JOINT RightHandIndex2
                        {
                          OFFSET 0 -4.5 0
                          CHANNELS 6 Xposition Yposition Zposition Zrotation Xrotation Yrotation
                          JOINT RightHandIndex3
                          {
                            OFFSET 0 -3.4 0
                            CHANNELS 6 Xposition Yposition Zposition Zrotation Xrotation Yrotation
                            End Site
                            {
                              OFFSET 0 -2.6 0
                            }
                          }
                        }
                      }
                    }
                    JOINT RightHandMiddle
                    {
                      OFFSET 0.250001 -2.2 0.399996
                      CHANNELS 6 Xposition Yposition Zposition Zrotation Xrotation Yrotation
                      JOINT RightHandMiddle1
                      {
                        OFFSET 0 -8.3 1
                        CHANNELS 6 Xposition Yposition Zposition Zrotation Xrotation Yrotation
                        JOINT RightHandMiddle2
                        {
                          OFFSET 0 -4.65 0
                          CHANNELS 6 Xposition Yposition Zposition Zrotation Xrotation Yrotation
                          JOINT RightHandMiddle3
                          {
                            OFFSET -1.38784e-05 -3.3 0
                            CHANNELS 6 Xposition Yposition Zposition Zrotation Xrotation Yrotation
                            End Site
                            {
                              OFFSET 1.2646e-05 -2.7 0
                            }
                          }
                        }
                      }
                    }
                    JOINT RightHandRing
                    {
                      OFFSET 0.500005 -2.15 -0.800004
                      CHANNELS 6 Xposition Yposition Zposition Zrotation Xrotation Yrotation
                      JOINT RightHandRing1
                      {
                        OFFSET -1.24181e-05 -7.75 -0.199999
                        CHANNELS 6 Xposition Yposition Zposition Zrotation Xrotation Yrotation
                        JOINT RightHandRing2
                        {
                          OFFSET 0 -3.80001 0
                          CHANNELS 6 Xposition Yposition Zposition Zrotation Xrotation Yrotation
                          JOINT RightHandRing3
                          {
                            OFFSET 0 -3.4 0
                            CHANNELS 6 Xposition Yposition Zposition Zrotation Xrotation Yrotation
                            End Site
                            {
                              OFFSET 0 -2.6 0
                            }
                          }
                        }
                      }
                    }
                    JOINT RightHandPinky
                    {
                      OFFSET 0.75 -1.75 -1.85
                      CHANNELS 6 Xposition Yposition Zposition Zrotation Xrotation Yrotation
                      JOINT RightHandPinky1
                      {
                        OFFSET 0 -7.14999 -1
                        CHANNELS 6 Xposition Yposition Zposition Zrotation Xrotation Yrotation
                        JOINT RightHandPinky2
                        {
                          OFFSET 0 -3 0
                          CHANNELS 6 Xposition Yposition Zposition Zrotation Xrotation Yrotation
                          JOINT RightHandPinky3
                          {
                            OFFSET -1.29746e-05 -2.35 0
                            CHANNELS 6 Xposition Yposition Zposition Zrotation Xrotation Yrotation
                            End Site
                            {
                              OFFSET 1.12692e-05 -2.1 0
                            }
                          }
                        }
                      }
                    }
                  }
                }
              }
            }
          }
        }
      }
    }
  }
  JOINT LeftUpLeg
  {
    OFFSET 8 0 0
    CHANNELS 6 Xposition Yposition Zposition Zrotation Xrotation Yrotation
    JOINT LeftLeg
    {
      OFFSET 0 -45 -1
      CHANNELS 6 Xposition Yposition Zposition Zrotation Xrotation Yrotation
      JOINT LeftFoot
      {
        OFFSET 0 -41.0001 -1.99998
        CHANNELS 6 Xposition Yposition Zposition Zrotation Xrotation Yrotation
        JOINT LeftToeBase
        {
          OFFSET 0 -7.5 12.5
          CHANNELS 6 Xposition Yposition Zposition Zrotation Xrotation Yrotation
          JOINT LeftFootToe
          {
            OFFSET 0 0 4
            CHANNELS 6 Xposition Yposition Zposition Zrotation Xrotation Yrotation
            End Site
            {
              OFFSET 0 0 0
            }
          }
        }
      }
    }
  }
  JOINT RightUpLeg
  {
    OFFSET -8 0 0
    CHANNELS 6 Xposition Yposition Zposition Zrotation Xrotation Yrotation
    JOINT RightLeg
    {
      OFFSET 0 -45 -0.999998
      CHANNELS 6 Xposition Yposition Zposition Zrotation Xrotation Yrotation
      JOINT RightFoot
      {
        OFFSET 0 -41.0001 -2
        CHANNELS 6 Xposition Yposition Zposition Zrotation Xrotation Yrotation
        JOINT RightToeBase
        {
          OFFSET 0 -7.5 12.5
          CHANNELS 6 Xposition Yposition Zposition Zrotation Xrotation Yrotation
          JOINT RightFootToe
          {
            OFFSET 0 0 4
            CHANNELS 6 Xposition Yposition Zposition Zrotation Xrotation Yrotation
            End Site
            {
              OFFSET 0 0 0
            }
          }
        }
      }
    }
  }
}
MOTION
Frames:	3
Frame Time:	0.0111111
-70.8824 93.3366 56.2201 -0.388086 1.17517 -118.229 1.42109e-14 8 -7.10543e-15 0.757124 -0.48283 0.845115 0 8 0 -0.0296247 0.174662 -9.50415 0 8 0 0.027066 0.013293 27.2768 0 8 0 0.00783614 -0.0312466 15.9867 0 17 0 2.22854 8.5451 -9.59267 0 10.8 -1.42109e-14 7.70998 19.2645 -23.7217 5 17 1.42109e-14 3.15409 -0.204788 -7.44279 6.45 5.68434e-14 0 3.15182 -0.204571 -7.44113 6.45 5.68434e-14 7.10543e-15 1.07922 -48.343 -29.567 0 -32.4 -2 -81.199 -40.8027 -20.0631 0 -25.65 2 27.0629 28.8403 -27.9042 -0.5 -1.5 2.65 -48.2858 -5.60217 7.79251 -1.77636e-14 -3.8 3.7 0.00653804 14.2277 0.0319114 1.77636e-15 -3 2.7 -0.0249886 44.5265 0.0455179 -1.42109e-14 -1.9 1.6 4.77083e-15 0 3.18055e-15 1.42109e-14 -8.3 1.9 -19.7746 0.770155 0.370431 0 -4.5 0 -10.9029 0.0125953 -0.00801569 1.42109e-14 -3.4 0 -9.4873 0.0104818 -0.00438916 -0.25 -2.2 0.4 4.77083e-15 0 3.18055e-15 -1.42109e-14 -8.3 1 -23.8892 5.25221 1.663 -1.42109e-14 -4.65 -2.13163e-14 -6.71112 0.0173703 -0.0225794 0 -3.3 -1.42109e-14 -6.09322 0.0161366 -0.0155639 -0.5 -2.15 -0.8 4.77083e-15 0 3.18055e-15 1.42109e-14 -7.75 -0.2 -27.5337 8.35711 3.03611 -1.42109e-14 -3.8 7.10543e-15 -2.57303 0.02029 -0.0226355 -1.42109e-14 -3.4 0 -2.43742 0.0197413 -0.0202855 -0.75 -1.75 -1.85 4.77083e-15 0 3.18055e-15 -1.42109e-14 -7.15 -1 -25.9002 6.62369 2.47333 0 -3 0 -12.1706 0.00397324 -0.00353135 0 -2.35 1.42109e-14 -10.4395 0.00329016 -0.00176485 -5 17 0 0.00151628 0.000722889 -1.45536 -6.45 2.84217e-14 0 0.00158577 0.000759737 -1.45648 -6.45 2.84217e-14 -2.84217e-14 -54.0866 4.56142 -43.7242 -1.06581e-14 -32.4 -2 93.4702 -44.2438 41.2359 0 -25.65 2 -5.71019 28.8477 5.56023 0.5 -1.5 2.65 13.1167 7.18352 21.8226 1.42109e-14 -3.8 3.7 -0.00654384 22.4949 0.000778578 -1.42109e-14 -3 2.7 -0.00601458 6.47918 0.00230197 -1.77636e-15 -1.9 1.6 -0.010657 0.0163529 0.024555 1.77636e-15 -8.3 1.9 47.7488 11.4175 -5.81347 -1.77636e-15 -4.5 0 10.2626 0.000504926 -0.0151454 0 -3.4 0 8.99859 -0.00863211 -0.0110885 0.25 -2.2 0.4 -0.0298511 0.0116429 -0.00716903 -3.55271e-15 -8.3 1 37.941 13.7695 -5.5502 3.55271e-15 -4.65 -5.68434e-14 7.77567 0.00226338 -0.0243034 -5.32907e-15 -3.3 -2.84217e-14 7.01 0.00747786 -0.0175964 0.5 -2.15 -0.8 -0.00571342 0.0110381 0.006612 -1.77636e-15 -7.75 -0.2 28.4 14.644 -4.65907 -1.77636e-15 -3.8 0 9.64626 0.0145842 -0.0114513 -7.10543e-15 -3.4 2.84217e-14 8.52033 0.00731998 -0.00906964 0.75 -1.75 -1.85 0.00595631 0.0192262 0.000155578 -1.77636e-15 -7.15 -1 23.2764 13.6025 -3.81006 -1.77636e-15 -3 2.84217e-14 0.000232943 0.000163723 -0.011524 0 -2.35 -2.84217e-14 8.55488e-07 0.000152799 -0.0103697 8 0 7.10543e-15 5.43665 -5.94732 42.1044 0 -45 -1 0.00423971 4.02835 0.941428 0 -41 -2 1.06423 3.96857 -51.6427 0 -7.5 12.5 7.55053e-10 -5.90499e-08 1.36343e-08 1.42109e-14 -2.77556e-17 4 -0.279684 -5.07149 0.00743788 -8 0 -7.10543e-15 -8.86502 -7.87764 -5.71411 7.10543e-15 -45 -1 -0.363382 35.3997 1.49776 0 -41 -2 1.06179 1.79923 16.7347 0 -7.5 12.5 3.59236e-06 -9.26727 0.000430284 7.10543e-15 3.55271e-15 4 1.01903 10.0911 0.392984 
-71.0925 93.3608 56.4463 -0.252299 1.27181 -118.341 -1.42109e-14 8 0 0.856936 -0.546889 0.87007 0 8 -7.10543e-15 -0.0369418 0.21307 -9.4948 0 8 -7.10543e-15 0.021504 0.00633761 27.2466 0 8 -7.10543e-15 0.00706512 -0.0393025 15.972 0 17 0 2.30304 8.75559 -9.80452 0 10.8 0 8.01669 19.7129 -24.3076 5 17 0 3.10377 -0.200448 -7.40116 6.45 -2.84217e-14 0 3.10397 -0.200468 -7.40129 6.45 0 1.42109e-14 1.39246 -47.8283 -29.1965 0 -32.4 -2 -80.8869 -40.6993 -19.6686 0 -25.65 2 25.9178 29.9798 -27.6624 -0.5 -1.5 2.65 -48.086 -5.4426 7.41195 0 -3.8 3.7 0.00696715 13.697 0.0386647 -1.77636e-15 -3 2.7 -0.0285639 44.0112 0.0505227 0 -1.9 1.6 1.76556e-31 -3.18055e-15 3.18055e-15 0 -8.3 1.9 -22.1377 0.945206 0.447015 0 -4.5 0 -10.7344 0.0216578 -0.0172038 -1.42109e-14 -3.4 1.42109e-14 -9.35752 0.0185903 -0.0104263 -0.25 -2.2 0.4 1.76556e-31 -3.18055e-15 3.18055e-15 0 -8.3 1 -25.3473 5.32395 1.75341 0 -4.65 7.10543e-15 -5.86676 0.00280514 -0.0017773 0 -3.3 -1.42109e-14 -5.43753 0.00258278 -0.00164639 -0.5 -2.15 -0.8 1.76556e-31 -3.18055e-15 3.18055e-15 0 -7.75 -0.2 -28.2427 8.42503 3.10371 1.42109e-14 -3.8 -2.13163e-14 -2.0508 0.0215656 -0.02464 1.42109e-14 -3.4 1.42109e-14 -1.94999 0.0211154 -0.022344 -0.75 -1.75 -1.85 1.76556e-31 -3.18055e-15 3.18055e-15 -1.42109e-14 -7.15 -1 -26.0627 6.61559 2.45807 0 -3 1.42109e-14 -11.765 -0.00443282 0.00369614 -1.42109e-14 -2.35 7.10543e-15 -10.1544 -0.0037624 0.00207293 -5 17 -1.42109e-14 0.00151657 0.000722881 -1.47848 -6.45 0 0 0.00158801 0.000755833 -1.47811 -6.45 2.84217e-14 0 -54.3314 4.61238 -43.2059 0 -32.4 -2 93.3726 -44.1912 40.9863 0 -25.65 2 -5.14629 29.023 5.61319 0.5 -1.5 2.65 13.0315 7.17868 21.8544 -1.42109e-14 -3.8 3.7 -0.00654307 22.4431 0.000778287 1.42109e-14 -3 2.7 -0.0060054 6.25204 0.00230095 -1.77636e-15 -1.9 1.6 -0.0106569 0.0162159 0.0243591 -1.77636e-15 -8.3 1.9 47.6148 11.3071 -5.74381 3.55271e-15 -4.5 0 10.6731 0.000504926 -0.0123315 1.77636e-15 -3.4 2.84217e-14 9.32058 -0.00863211 -0.00897249 0.25 -2.2 0.4 -0.0298511 0.0115155 -0.00716903 1.77636e-15 -8.3 1 37.7667 13.7961 -5.53247 0 -4.65 2.84217e-14 8.3377 0.00226338 -0.0225549 -3.55271e-15 -3.3 0 7.4709 0.00747786 -0.016093 0.5 -2.15 -0.8 -0.00571342 0.0110381 0.006612 1.77636e-15 -7.75 -0.2 28.2901 14.6714 -4.64978 3.55271e-15 -3.8 0 9.98832 0.0145842 -0.00638846 -3.55271e-15 -3.4 -2.84217e-14 8.79378 0.00731998 -0.00483869 0.75 -1.75 -1.85 0.00595631 0.0190204 0.000155578 1.77636e-15 -7.15 -1 23.1627 13.6778 -3.81022 -3.55271e-15 -3 0 0.000232943 0.000163723 -0.011524 -3.55271e-15 -2.35 0 8.55488e-07 0.000152799 -0.0103697 8 0 -7.10543e-15 5.45953 -5.91806 42.0448 -7.10543e-15 -45 -1 0.00465207 4.07122 0.919033 0 -41 -2 1.12985 3.81114 -51.5485 1.42109e-14 -7.5 12.5 7.55053e-10 -5.90499e-08 1.36343e-08 0 1.38778e-17 4 -0.416652 -5.04486 0.0106573 -8 0 7.10543e-15 -9.26433 -8.85667 -6.04412 -7.10543e-15 -45 -1 -0.397758 36.8662 1.51023 -7.10543e-15 -41 -2 1.05048 1.97716 17.529 -7.10543e-15 -7.5 12.5 -2.03737e-05 -6.0924 0.00042708 0 3.55271e-15 4 1.14394 5.55816 0.546646 
-71.315 93.4041 56.5691 -0.0823267 1.41337 -118.415 0 8 7.10543e-15 1.01557 -0.625949 0.896069 0 8 0 -0.0452074 0.260084 -9.48968 -1.42109e-14 8 0 0.0168109 0.00104225 27.2067 0 8 -1.42109e-14 0.0050518 -0.0485007 15.9529 0 17 0 2.36861 8.93839 -10.0013 0 10.8 0 8.29096 20.1005 -24.8514 5 17 0 3.05672 -0.196373 -7.36061 6.45 0 0 3.05733 -0.196464 -7.36102 6.45 0 1.42109e-14 1.65631 -47.3492 -28.8755 0 -32.4 -2 -80.5749 -40.6561 -19.3622 0 -25.65 2 24.6975 31.2269 -27.2801 -0.5 -1.5 2.65 -47.8456 -5.383 6.80563 -8.88178e-15 -3.8 3.7 0.00618491 12.9811 0.0421422 -1.24345e-14 -3 2.7 -0.0298521 43.3954 0.051619 0 -1.9 1.6 7.95139e-15 -6.36111e-15 3.18055e-15 -1.42109e-14 -8.3 1.9 -24.7709 1.08378 0.539172 0 -4.5 0 -10.1794 0.0251762 -0.0197914 0 -3.4 1.42109e-14 -8.92633 0.0217028 -0.0121894 -0.25 -2.2 0.4 7.95139e-15 -6.36111e-15 3.18055e-15 0 -8.3 1 -26.4406 5.26452 1.78914 0 -4.65 0 -5.63745 -0.000791981 0.00224718 -7.10543e-15 -3.3 0 -5.25553 -0.000762717 0.000967948 -0.5 -2.15 -0.8 7.95139e-15 -6.36111e-15 3.18055e-15 -1.42109e-14 -7.75 -0.2 -28.2872 8.42464 3.07411 0 -3.8 0 -1.45454 0.0172326 -0.0199206 7.10543e-15 -3.4 7.10543e-15 -1.38995 0.016918 -0.018288 -0.75 -1.75 -1.85 7.95139e-15 -6.36111e-15 3.18055e-15 -1.42109e-14 -7.15 -1 -25.3365 6.65332 2.36711 0 -3 -2.13163e-14 -11.8062 -0.00614818 0.0051169 -7.10543e-15 -2.35 0 -10.188 -0.00546331 0.0028744 -5 17 1.42109e-14 0.00151685 0.000722874 -1.50051 -6.45 0 0 0.00159024 0.000751935 -1.49935 -6.45 0 0 -54.5568 4.66126 -42.685 3.55271e-15 -32.4 -2 93.2804 -44.1233 40.7258 0 -25.65 2 -4.55487 29.1654 5.60101 0.5 -1.5 2.65 12.9355 7.22726 21.9284 -1.42109e-14 -3.8 3.7 -0.00654242 22.3984 0.000778036 0 -3 2.7 -0.00599491 5.99226 0.00229983 0 -1.9 1.6 -0.0106564 0.0156686 0.0235782 0 -8.3 1.9 47.4758 11.1816 -5.6665 -8.88178e-15 -4.5 0 10.9813 0.000504926 -0.0108205 5.32907e-15 -3.4 2.84217e-14 9.55782 -0.00863211 -0.00845343 0.25 -2.2 0.4 -0.0298512 0.0110072 -0.00716903 -1.77636e-15 -8.3 1 37.5862 13.8014 -5.50577 -3.55271e-15 -4.65 0 8.89902 0.00226338 -0.0212079 -3.55271e-15 -3.3 0 7.92179 0.00747786 -0.0138195 0.5 -2.15 -0.8 -0.00571342 0.0110381 0.006612 0 -7.75 -0.2 28.2204 14.6709 -4.63882 -1.77636e-15 -3.8 0 10.2088 0.0145842 -0.00473919 3.55271e-15 -3.4 -2.84217e-14 8.96623 0.00731998 -0.00333182 0.75 -1.75 -1.85 0.00595631 0.0181988 0.000155578 -3.55271e-15 -7.15 -1 23.1155 13.69 -3.80536 3.55271e-15 -3 -2.84217e-14 0.000232943 0.000163723 -0.011524 7.10543e-15 -2.35 0 8.55488e-07 0.000152799 -0.0103697 8 1.42109e-14 0 5.52696 -5.88901 41.9538 7.10543e-15 -45 -1 0.00442748 4.05856 0.897952 7.10543e-15 -41 -2 1.19013 3.69015 -51.4421 1.42109e-14 -7.5 12.5 7.55053e-10 -5.90499e-08 1.36342e-08 0 -6.93889e-18 4 -0.536885 -5.01828 0.0137025 -8 1.42109e-14 0 -9.54421 -9.78482 -6.32649 0 -45 -1 -0.429787 38.2624 1.53115 0 -41 -2 1.02936 2.15886 18.2814 -7.10543e-15 -7.5 12.5 -4.08693e-05 -3.34642 0.000425394 0 0 4 1.26074 1.15595 0.705427 
